<svg width="44" height="43" viewBox="0 0 44 43" fill="none" xmlns="http://www.w3.org/2000/svg">
<g filter="url(#filter0_d_7_2825)">
<path fill-rule="evenodd" clip-rule="evenodd" d="M27.086 20.0782H19.268L22.212 17.1342C22.7 16.6452 22.7 15.8542 22.212 15.3662C21.724 14.8782 20.933 14.8782 20.444 15.3662L15.366 20.4442C14.878 20.9322 14.878 21.7242 15.366 22.2122L20.444 27.2902C20.689 27.5342 21.008 27.6562 21.328 27.6562C21.649 27.6562 21.968 27.5342 22.212 27.2902C22.7 26.8022 22.7 26.0112 22.212 25.5222L19.268 22.5782H27.086C27.776 22.5782 28.336 22.0182 28.336 21.3282C28.336 20.6382 27.776 20.0782 27.086 20.0782Z" fill="black"/>
<mask id="mask0_7_2825" style="mask-type:alpha" maskUnits="userSpaceOnUse" x="15" y="15" width="14" height="13">
<path fill-rule="evenodd" clip-rule="evenodd" d="M27.086 20.0782H19.268L22.212 17.1342C22.7 16.6452 22.7 15.8542 22.212 15.3662C21.724 14.8782 20.933 14.8782 20.444 15.3662L15.366 20.4442C14.878 20.9322 14.878 21.7242 15.366 22.2122L20.444 27.2902C20.689 27.5342 21.008 27.6562 21.328 27.6562C21.649 27.6562 21.968 27.5342 22.212 27.2902C22.7 26.8022 22.7 26.0112 22.212 25.5222L19.268 22.5782H27.086C27.776 22.5782 28.336 22.0182 28.336 21.3282C28.336 20.6382 27.776 20.0782 27.086 20.0782Z" fill="white"/>
</mask>
<g mask="url(#mask0_7_2825)">
<rect x="-29.8027" y="-28.7213" width="96" height="96" fill="white"/>
</g>
</g>
<defs>
<filter id="filter0_d_7_2825" x="-5" y="-6" width="54" height="54" filterUnits="userSpaceOnUse" color-interpolation-filters="sRGB">
<feFlood flood-opacity="0" result="BackgroundImageFix"/>
<feColorMatrix in="SourceAlpha" type="matrix" values="0 0 0 0 0 0 0 0 0 0 0 0 0 0 0 0 0 0 127 0" result="hardAlpha"/>
<feOffset/>
<feGaussianBlur stdDeviation="7.5"/>
<feColorMatrix type="matrix" values="0 0 0 0 0 0 0 0 0 0 0 0 0 0 0 0 0 0 0.360604 0"/>
<feBlend mode="normal" in2="BackgroundImageFix" result="effect1_dropShadow_7_2825"/>
<feBlend mode="normal" in="SourceGraphic" in2="effect1_dropShadow_7_2825" result="shape"/>
</filter>
</defs>
</svg>
