<svg width="18" height="16" viewBox="0 0 18 16" fill="none" xmlns="http://www.w3.org/2000/svg">
<path fill-rule="evenodd" clip-rule="evenodd" d="M5.05003 2C5.02859 2 5.0093 2 4.98786 2.00114C4.38117 2.01596 3.57296 2.16648 2.70473 3.22235C1.85686 4.252 1.83864 6.2862 2.30813 7.58153C2.98771 9.4561 4.35759 10.6237 5.56454 11.6545C6.96765 12.8506 8.33003 13.6613 9.00103 14C9.67097 13.6602 11.0333 12.8506 12.4365 11.6545C13.6434 10.6237 15.0122 9.4561 15.6918 7.58153C16.1613 6.2862 16.1431 4.252 15.2963 3.22235C14.428 2.16648 13.6188 2.01596 13.011 2.00114C12.9906 2 12.9703 2 12.9488 2C11.5264 2 10.178 3.13569 9.66561 3.5667C9.27544 3.89282 8.72556 3.8951 8.33539 3.5667C7.82302 3.13569 6.47136 2 5.05003 2ZM9.00102 16C8.88395 16 8.76794 15.9803 8.65614 15.9409C7.92736 15.678 6.0395 14.6191 4.30034 13.1714C2.97356 12.0676 1.32088 10.6922 0.446557 8.33775C-0.257965 6.43998 -0.218942 3.62563 1.21963 1.92169C2.27853 0.664543 3.51777 0.0370642 5.00591 0.00202175C6.71027 -0.0133093 8.11298 0.814569 9.00102 1.46504C9.88695 0.814569 11.3413 -0.0472567 12.993 0.00202175C14.4832 0.0370642 15.7225 0.664543 16.7814 1.92279C18.2189 3.62563 18.2579 6.43998 17.5534 8.33775C16.679 10.6922 15.0264 12.0676 13.7006 13.1714C11.9615 14.618 10.0736 15.678 9.3459 15.9409C9.23305 15.9803 9.11703 16 9.00102 16Z" fill="#F15A24"/>
<mask id="mask0_7_2806" style="mask-type:alpha" maskUnits="userSpaceOnUse" x="0" y="0" width="18" height="16">
<path fill-rule="evenodd" clip-rule="evenodd" d="M5.05003 2C5.02859 2 5.0093 2 4.98786 2.00114C4.38117 2.01596 3.57296 2.16648 2.70473 3.22235C1.85686 4.252 1.83864 6.2862 2.30813 7.58153C2.98771 9.4561 4.35759 10.6237 5.56454 11.6545C6.96765 12.8506 8.33003 13.6613 9.00103 14C9.67097 13.6602 11.0333 12.8506 12.4365 11.6545C13.6434 10.6237 15.0122 9.4561 15.6918 7.58153C16.1613 6.2862 16.1431 4.252 15.2963 3.22235C14.428 2.16648 13.6188 2.01596 13.011 2.00114C12.9906 2 12.9703 2 12.9488 2C11.5264 2 10.178 3.13569 9.66561 3.5667C9.27544 3.89282 8.72556 3.8951 8.33539 3.5667C7.82302 3.13569 6.47136 2 5.05003 2ZM9.00102 16C8.88395 16 8.76794 15.9803 8.65614 15.9409C7.92736 15.678 6.0395 14.6191 4.30034 13.1714C2.97356 12.0676 1.32088 10.6922 0.446557 8.33775C-0.257965 6.43998 -0.218942 3.62563 1.21963 1.92169C2.27853 0.664543 3.51777 0.0370642 5.00591 0.00202175C6.71027 -0.0133093 8.11298 0.814569 9.00102 1.46504C9.88695 0.814569 11.3413 -0.0472567 12.993 0.00202175C14.4832 0.0370642 15.7225 0.664543 16.7814 1.92279C18.2189 3.62563 18.2579 6.43998 17.5534 8.33775C16.679 10.6922 15.0264 12.0676 13.7006 13.1714C11.9615 14.618 10.0736 15.678 9.3459 15.9409C9.23305 15.9803 9.11703 16 9.00102 16Z" fill="white"/>
</mask>
<g mask="url(#mask0_7_2806)">
<rect x="-39" y="-40" width="96" height="96" fill="white"/>
</g>
</svg>
