<svg width="21" height="21" viewBox="0 0 21 21" fill="none" xmlns="http://www.w3.org/2000/svg">
<path fill-rule="evenodd" clip-rule="evenodd" d="M7.64263 6.62701H8.78563C9.33763 6.62701 9.78563 7.07501 9.78563 7.62701C9.78563 8.17901 9.33763 8.62701 8.78563 8.62701H7.64263V16.5C7.64263 17.052 7.19563 17.5 6.64263 17.5C6.09063 17.5 5.64263 17.052 5.64263 16.5V8.62701H4.49963C3.94763 8.62701 3.49963 8.17901 3.49963 7.62701C3.49963 7.07501 3.94763 6.62701 4.49963 6.62701H5.64263V4.82701C5.64263 4.27501 6.09063 3.82701 6.64263 3.82701C7.19563 3.82701 7.64263 4.27501 7.64263 4.82701V6.62701ZM14.6661 11.9116H15.8091C16.3611 11.9116 16.8091 12.3596 16.8091 12.9116C16.8091 13.4636 16.3611 13.9116 15.8091 13.9116H14.6661V16.4996C14.6661 17.0526 14.2191 17.4996 13.6661 17.4996C13.1141 17.4996 12.6661 17.0526 12.6661 16.4996V13.9116H11.5231C10.9711 13.9116 10.5231 13.4636 10.5231 12.9116C10.5231 12.3596 10.9711 11.9116 11.5231 11.9116H12.6661V4.82761C12.6661 4.27461 13.1141 3.82761 13.6661 3.82761C14.2191 3.82761 14.6661 4.27461 14.6661 4.82761V11.9116Z" fill="#355F55"/>
<mask id="mask0_7_1198" style="mask-type:alpha" maskUnits="userSpaceOnUse" x="3" y="3" width="14" height="15">
<path fill-rule="evenodd" clip-rule="evenodd" d="M7.64263 6.62701H8.78563C9.33763 6.62701 9.78563 7.07501 9.78563 7.62701C9.78563 8.17901 9.33763 8.62701 8.78563 8.62701H7.64263V16.5C7.64263 17.052 7.19563 17.5 6.64263 17.5C6.09063 17.5 5.64263 17.052 5.64263 16.5V8.62701H4.49963C3.94763 8.62701 3.49963 8.17901 3.49963 7.62701C3.49963 7.07501 3.94763 6.62701 4.49963 6.62701H5.64263V4.82701C5.64263 4.27501 6.09063 3.82701 6.64263 3.82701C7.19563 3.82701 7.64263 4.27501 7.64263 4.82701V6.62701ZM14.6661 11.9116H15.8091C16.3611 11.9116 16.8091 12.3596 16.8091 12.9116C16.8091 13.4636 16.3611 13.9116 15.8091 13.9116H14.6661V16.4996C14.6661 17.0526 14.2191 17.4996 13.6661 17.4996C13.1141 17.4996 12.6661 17.0526 12.6661 16.4996V13.9116H11.5231C10.9711 13.9116 10.5231 13.4636 10.5231 12.9116C10.5231 12.3596 10.9711 11.9116 11.5231 11.9116H12.6661V4.82761C12.6661 4.27461 13.1141 3.82761 13.6661 3.82761C14.2191 3.82761 14.6661 4.27461 14.6661 4.82761V11.9116Z" fill="white"/>
</mask>
<g mask="url(#mask0_7_1198)">
<rect x="-35" y="-33.25" width="84" height="84" fill="#FC1055"/>
</g>
</svg>
