<svg width="24" height="24" viewBox="0 0 24 24" fill="none" xmlns="http://www.w3.org/2000/svg">
<path fill-rule="evenodd" clip-rule="evenodd" d="M16.102 21.0097H18.125C19.233 21.0097 20.135 20.1087 20.135 19.0007L20.21 12.3537C21.035 12.3277 21.751 11.8077 22.033 11.0297C22.314 10.2517 22.096 9.39273 21.477 8.84373L13.837 2.82773C12.597 1.72573 10.726 1.72573 9.48702 2.82573L2.67702 8.84373C2.05702 9.39273 1.84002 10.2517 2.12102 11.0297C2.40302 11.8077 3.11902 12.3277 4.01902 12.3607V19.0007C4.01902 20.1087 4.92102 21.0097 6.02902 21.0097H9.73902C10.921 21.0097 11.883 20.0487 11.883 18.8667V15.5957C11.883 15.2157 12.192 14.9057 12.573 14.9057H13.268C13.648 14.9057 13.958 15.2157 13.958 15.5957V18.8667C13.958 20.0487 14.92 21.0097 16.102 21.0097Z" fill="#FC1055"/>
<mask id="mask0_7_2395" style="mask-type:alpha" maskUnits="userSpaceOnUse" x="1" y="2" width="22" height="20">
<path fill-rule="evenodd" clip-rule="evenodd" d="M16.102 21.0097H18.125C19.233 21.0097 20.135 20.1087 20.135 19.0007L20.21 12.3537C21.035 12.3277 21.751 11.8077 22.033 11.0297C22.314 10.2517 22.096 9.39273 21.477 8.84373L13.837 2.82773C12.597 1.72573 10.726 1.72573 9.48702 2.82573L2.67702 8.84373C2.05702 9.39273 1.84002 10.2517 2.12102 11.0297C2.40302 11.8077 3.11902 12.3277 4.01902 12.3607V19.0007C4.01902 20.1087 4.92102 21.0097 6.02902 21.0097H9.73902C10.921 21.0097 11.883 20.0487 11.883 18.8667V15.5957C11.883 15.2157 12.192 14.9057 12.573 14.9057H13.268C13.648 14.9057 13.958 15.2157 13.958 15.5957V18.8667C13.958 20.0487 14.92 21.0097 16.102 21.0097Z" fill="white"/>
</mask>
<g mask="url(#mask0_7_2395)">
<rect x="-39.8029" y="-37.7203" width="96" height="96" fill="#FC1055"/>
<path fill-rule="evenodd" clip-rule="evenodd" d="M8.54671 13.2968C7.74371 13.2968 7.09271 12.6458 7.09271 11.8428C7.09271 11.0398 7.74371 10.3888 8.54671 10.3888C9.34971 10.3888 10.0007 11.0398 10.0007 11.8428C10.0007 12.6458 9.34971 13.2968 8.54671 13.2968Z" fill="white"/>
</g>
</svg>
