<svg width="21" height="20" viewBox="0 0 21 20" fill="none" xmlns="http://www.w3.org/2000/svg">
<path fill-rule="evenodd" clip-rule="evenodd" d="M11.2681 10.9048H10.5731C9.09014 10.9048 7.88314 12.1117 7.88314 13.5948V16.8657C7.88314 16.9447 7.81814 17.0088 7.73914 17.0088L4.01914 16.9998V10.3598C4.01914 9.26975 3.13614 8.38875 2.00314 8.33975L8.81314 2.32175C9.29614 1.89275 10.0241 1.89175 10.5541 2.35975L18.1561 8.34475L18.1471 8.35375C17.0181 8.38875 16.1351 9.26975 16.1351 10.3598L16.1251 17.0088H14.1021C14.0221 17.0088 13.9581 16.9447 13.9581 16.8657V13.5948C13.9581 12.1117 12.7521 10.9048 11.2681 10.9048ZM14.1021 19.0088H16.1251C17.2331 19.0088 18.1351 18.1077 18.1351 16.9998L18.2101 10.3527C19.0351 10.3267 19.7511 9.80675 20.0331 9.02875C20.3141 8.25075 20.0961 7.39175 19.4771 6.84275L11.8371 0.82675C10.5971 -0.27525 8.72614 -0.27525 7.48714 0.82475L0.677142 6.84275C0.0571416 7.39175 -0.159858 8.25075 0.121142 9.02875C0.403142 9.80675 1.11914 10.3267 2.01914 10.3597V16.9998C2.01914 18.1077 2.92114 19.0088 4.02914 19.0088H7.73914C8.92114 19.0088 9.88314 18.0477 9.88314 16.8657V13.5948C9.88314 13.2148 10.1921 12.9047 10.5731 12.9047H11.2681C11.6481 12.9047 11.9581 13.2148 11.9581 13.5948V16.8657C11.9581 18.0477 12.9201 19.0088 14.1021 19.0088ZM5.09284 9.84185C5.09284 10.6448 5.74384 11.2958 6.54684 11.2958C7.34984 11.2958 8.00084 10.6448 8.00084 9.84185C8.00084 9.03885 7.34984 8.38785 6.54684 8.38785C5.74384 8.38785 5.09284 9.03885 5.09284 9.84185Z" fill="#FC1055"/>
<mask id="mask0_11_2335" style="mask-type:alpha" maskUnits="userSpaceOnUse" x="0" y="0" width="21" height="20">
<path fill-rule="evenodd" clip-rule="evenodd" d="M11.2681 10.9048H10.5731C9.09014 10.9048 7.88314 12.1117 7.88314 13.5948V16.8657C7.88314 16.9447 7.81814 17.0088 7.73914 17.0088L4.01914 16.9998V10.3598C4.01914 9.26975 3.13614 8.38875 2.00314 8.33975L8.81314 2.32175C9.29614 1.89275 10.0241 1.89175 10.5541 2.35975L18.1561 8.34475L18.1471 8.35375C17.0181 8.38875 16.1351 9.26975 16.1351 10.3598L16.1251 17.0088H14.1021C14.0221 17.0088 13.9581 16.9447 13.9581 16.8657V13.5948C13.9581 12.1117 12.7521 10.9048 11.2681 10.9048ZM14.1021 19.0088H16.1251C17.2331 19.0088 18.1351 18.1077 18.1351 16.9998L18.2101 10.3527C19.0351 10.3267 19.7511 9.80675 20.0331 9.02875C20.3141 8.25075 20.0961 7.39175 19.4771 6.84275L11.8371 0.82675C10.5971 -0.27525 8.72614 -0.27525 7.48714 0.82475L0.677142 6.84275C0.0571416 7.39175 -0.159858 8.25075 0.121142 9.02875C0.403142 9.80675 1.11914 10.3267 2.01914 10.3597V16.9998C2.01914 18.1077 2.92114 19.0088 4.02914 19.0088H7.73914C8.92114 19.0088 9.88314 18.0477 9.88314 16.8657V13.5948C9.88314 13.2148 10.1921 12.9047 10.5731 12.9047H11.2681C11.6481 12.9047 11.9581 13.2148 11.9581 13.5948V16.8657C11.9581 18.0477 12.9201 19.0088 14.1021 19.0088ZM5.09284 9.84185C5.09284 10.6448 5.74384 11.2958 6.54684 11.2958C7.34984 11.2958 8.00084 10.6448 8.00084 9.84185C8.00084 9.03885 7.34984 8.38785 6.54684 8.38785C5.74384 8.38785 5.09284 9.03885 5.09284 9.84185Z" fill="white"/>
</mask>
<g mask="url(#mask0_11_2335)">
<rect x="-41.8027" y="-39.7213" width="96" height="96" fill="#CACDD4"/>
</g>
</svg>
