<svg width="14" height="15" viewBox="0 0 14 15" fill="none" xmlns="http://www.w3.org/2000/svg">
<path fill-rule="evenodd" clip-rule="evenodd" d="M10.9793 12.9485H3.78748C3.21332 12.9485 2.74586 12.4749 2.74586 11.8932V7.59605H12.0209V11.8932C12.0209 12.4749 11.5535 12.9485 10.9793 12.9485M10.8401 1.71958C10.8328 1.21942 10.4332 0.814522 9.93861 0.814522C9.44312 0.814522 9.04257 1.21942 9.03624 1.71958H5.73056C5.72423 1.21942 5.32368 0.814522 4.82819 0.814522C4.3336 0.814522 3.93395 1.21942 3.92672 1.71958H3.78748C2.21601 1.71958 0.9375 3.01488 0.9375 4.60697V11.8932C0.9375 13.4853 2.21601 14.7806 3.78748 14.7806H10.9793C12.5508 14.7806 13.8293 13.4853 13.8293 11.8932V4.60697C13.8293 3.01488 12.5508 1.71958 10.9793 1.71958H10.8401Z" fill="black"/>
<mask id="mask0_7_2491" style="mask-type:alpha" maskUnits="userSpaceOnUse" x="0" y="0" width="14" height="15">
<path fill-rule="evenodd" clip-rule="evenodd" d="M10.9793 12.9485H3.78748C3.21332 12.9485 2.74586 12.4749 2.74586 11.8932V7.59605H12.0209V11.8932C12.0209 12.4749 11.5535 12.9485 10.9793 12.9485M10.8401 1.71958C10.8328 1.21942 10.4332 0.814522 9.93861 0.814522C9.44312 0.814522 9.04257 1.21942 9.03624 1.71958H5.73056C5.72423 1.21942 5.32368 0.814522 4.82819 0.814522C4.3336 0.814522 3.93395 1.21942 3.92672 1.71958H3.78748C2.21601 1.71958 0.9375 3.01488 0.9375 4.60697V11.8932C0.9375 13.4853 2.21601 14.7806 3.78748 14.7806H10.9793C12.5508 14.7806 13.8293 13.4853 13.8293 11.8932V4.60697C13.8293 3.01488 12.5508 1.71958 10.9793 1.71958H10.8401Z" fill="white"/>
</mask>
<g mask="url(#mask0_7_2491)">
<rect x="-54.4971" y="-54.0831" width="123.761" height="123.761" fill="#FC1055"/>
</g>
</svg>
