<svg width="24" height="24" viewBox="0 0 24 24" fill="none" xmlns="http://www.w3.org/2000/svg">
<path fill-rule="evenodd" clip-rule="evenodd" d="M12.371 15.9974C10.5125 15.9974 8.78252 16.7412 7.78293 17.9005C9.02488 18.8912 10.5941 19.4876 12.3029 19.4876C14.0474 19.4876 15.6501 18.8689 16.9043 17.8402C15.8969 16.7167 14.197 15.9974 12.371 15.9974ZM19.5691 12.2213C19.5691 8.21514 16.309 4.95503 12.3029 4.95503C8.29557 4.95503 5.03657 8.21514 5.03657 12.2213C5.03657 13.7134 5.4889 15.1017 6.264 16.2565C7.69916 14.7141 9.93623 13.7637 12.371 13.7637C14.7599 13.7637 16.959 14.6762 18.3976 16.1649C19.1358 15.028 19.5691 13.6755 19.5691 12.2213ZM2.80286 12.2213C2.80286 6.98325 7.06367 2.72131 12.3029 2.72131C17.5409 2.72131 21.8029 6.98325 21.8029 12.2213C21.8029 17.4594 17.5409 21.7213 12.3029 21.7213C7.06367 21.7213 2.80286 17.4594 2.80286 12.2213ZM14.3029 9.99742C14.3029 11.1031 13.4072 11.9977 12.3026 11.9977C11.1981 11.9977 10.3023 11.1031 10.3023 9.99742C10.3023 8.89397 11.1981 7.99825 12.3026 7.99825C13.4072 7.99825 14.3029 8.89397 14.3029 9.99742Z" fill="#C2C6CE"/>
<mask id="mask0_7_2411" style="mask-type:alpha" maskUnits="userSpaceOnUse" x="2" y="2" width="20" height="20">
<path fill-rule="evenodd" clip-rule="evenodd" d="M12.371 15.9974C10.5125 15.9974 8.78252 16.7412 7.78293 17.9005C9.02488 18.8912 10.5941 19.4876 12.3029 19.4876C14.0474 19.4876 15.6501 18.8689 16.9043 17.8402C15.8969 16.7167 14.197 15.9974 12.371 15.9974ZM19.5691 12.2213C19.5691 8.21514 16.309 4.95503 12.3029 4.95503C8.29557 4.95503 5.03657 8.21514 5.03657 12.2213C5.03657 13.7134 5.4889 15.1017 6.264 16.2565C7.69916 14.7141 9.93623 13.7637 12.371 13.7637C14.7599 13.7637 16.959 14.6762 18.3976 16.1649C19.1358 15.028 19.5691 13.6755 19.5691 12.2213ZM2.80286 12.2213C2.80286 6.98325 7.06367 2.72131 12.3029 2.72131C17.5409 2.72131 21.8029 6.98325 21.8029 12.2213C21.8029 17.4594 17.5409 21.7213 12.3029 21.7213C7.06367 21.7213 2.80286 17.4594 2.80286 12.2213ZM14.3029 9.99742C14.3029 11.1031 13.4072 11.9977 12.3026 11.9977C11.1981 11.9977 10.3023 11.1031 10.3023 9.99742C10.3023 8.89397 11.1981 7.99825 12.3026 7.99825C13.4072 7.99825 14.3029 8.89397 14.3029 9.99742Z" fill="white"/>
</mask>
<g mask="url(#mask0_7_2411)">
<rect x="-40" y="-38" width="96" height="96" fill="#CACDD4"/>
</g>
</svg>
