<svg width="21" height="21" viewBox="0 0 21 21" fill="none" xmlns="http://www.w3.org/2000/svg">
<path fill-rule="evenodd" clip-rule="evenodd" d="M6.04981 9.69343H12.8906L10.3146 7.11743C9.88756 6.68956 9.88756 5.99743 10.3146 5.57043C10.7416 5.14343 11.4337 5.14343 11.8616 5.57043L16.3048 10.0137C16.7318 10.4407 16.7318 11.1337 16.3048 11.5607L11.8616 16.0039C11.6472 16.2174 11.3681 16.3242 11.0881 16.3242C10.8072 16.3242 10.5281 16.2174 10.3146 16.0039C9.88756 15.5769 9.88756 14.8848 10.3146 14.4569L12.8906 11.8809H6.04981C5.44606 11.8809 4.95606 11.3909 4.95606 10.7872C4.95606 10.1834 5.44606 9.69343 6.04981 9.69343" fill="black"/>
<mask id="mask0_7_1190" style="mask-type:alpha" maskUnits="userSpaceOnUse" x="4" y="5" width="13" height="12">
<path fill-rule="evenodd" clip-rule="evenodd" d="M6.04981 9.69343H12.8906L10.3146 7.11743C9.88756 6.68956 9.88756 5.99743 10.3146 5.57043C10.7416 5.14343 11.4337 5.14343 11.8616 5.57043L16.3048 10.0137C16.7318 10.4407 16.7318 11.1337 16.3048 11.5607L11.8616 16.0039C11.6472 16.2174 11.3681 16.3242 11.0881 16.3242C10.8072 16.3242 10.5281 16.2174 10.3146 16.0039C9.88756 15.5769 9.88756 14.8848 10.3146 14.4569L12.8906 11.8809H6.04981C5.44606 11.8809 4.95606 11.3909 4.95606 10.7872C4.95606 10.1834 5.44606 9.69343 6.04981 9.69343" fill="white"/>
</mask>
<g mask="url(#mask0_7_1190)">
<rect width="84" height="84" transform="matrix(-1 0 0 1 55.8275 -33.0062)" fill="#FC1055"/>
</g>
</svg>
