<svg width="45" height="48" viewBox="0 0 45 48" fill="none" xmlns="http://www.w3.org/2000/svg">
<g filter="url(#filter0_d_7_2815)">
<path fill-rule="evenodd" clip-rule="evenodd" d="M23.2481 15.8444L25.6957 18.2929C26.0619 18.6592 26.0619 19.2512 25.6957 19.6174C25.3294 19.9837 24.7374 19.9837 24.3712 19.6174L23.4907 18.7369V25.8455C23.4907 26.3635 23.0711 26.7822 22.554 26.7822C22.036 26.7822 21.6173 26.3635 21.6173 25.8455V18.7997L20.7359 19.6802C20.5532 19.8638 20.3134 19.9546 20.0737 19.9546C19.8339 19.9546 19.5941 19.8638 19.4114 19.6802C19.0452 19.3149 19.0452 18.7219 19.4114 18.3557L21.9236 15.8444C22.0988 15.6683 22.3367 15.57 22.5859 15.57C22.8341 15.57 23.072 15.6683 23.2481 15.8444ZM16.443 32.4046H28.6641C29.182 32.4046 29.6007 31.9859 29.6007 31.4679V22.7164C29.6007 22.1984 29.182 21.7797 28.6641 21.7797H26.2746C25.7566 21.7797 25.3379 22.1984 25.3379 22.7164C25.3379 23.2343 25.7566 23.653 26.2746 23.653H27.7274V30.5312H17.3797V23.653H18.8007C19.3177 23.653 19.7374 23.2343 19.7374 22.7164C19.7374 22.1984 19.3177 21.7797 18.8007 21.7797H16.443C15.925 21.7797 15.5063 22.1984 15.5063 22.7164V31.4679C15.5063 31.9859 15.925 32.4046 16.443 32.4046Z" fill="white"/>
<mask id="mask0_7_2815" style="mask-type:alpha" maskUnits="userSpaceOnUse" x="15" y="15" width="15" height="18">
<path fill-rule="evenodd" clip-rule="evenodd" d="M23.2481 15.8444L25.6957 18.2929C26.0619 18.6592 26.0619 19.2512 25.6957 19.6174C25.3294 19.9837 24.7374 19.9837 24.3712 19.6174L23.4907 18.7369V25.8455C23.4907 26.3635 23.0711 26.7822 22.554 26.7822C22.036 26.7822 21.6173 26.3635 21.6173 25.8455V18.7997L20.7359 19.6802C20.5532 19.8638 20.3134 19.9546 20.0737 19.9546C19.8339 19.9546 19.5941 19.8638 19.4114 19.6802C19.0452 19.3149 19.0452 18.7219 19.4114 18.3557L21.9236 15.8444C22.0988 15.6683 22.3367 15.57 22.5859 15.57C22.8341 15.57 23.072 15.6683 23.2481 15.8444ZM16.443 32.4046H28.6641C29.182 32.4046 29.6007 31.9859 29.6007 31.4679V22.7164C29.6007 22.1984 29.182 21.7797 28.6641 21.7797H26.2746C25.7566 21.7797 25.3379 22.1984 25.3379 22.7164C25.3379 23.2343 25.7566 23.653 26.2746 23.653H27.7274V30.5312H17.3797V23.653H18.8007C19.3177 23.653 19.7374 23.2343 19.7374 22.7164C19.7374 22.1984 19.3177 21.7797 18.8007 21.7797H16.443C15.925 21.7797 15.5063 22.1984 15.5063 22.7164V31.4679C15.5063 31.9859 15.925 32.4046 16.443 32.4046Z" fill="white"/>
</mask>
<g mask="url(#mask0_7_2815)">
<rect x="-21.9612" y="-21.8979" width="89.9224" height="89.9224" fill="white"/>
</g>
</g>
<defs>
<filter id="filter0_d_7_2815" x="-4" y="-3" width="54" height="54" filterUnits="userSpaceOnUse" color-interpolation-filters="sRGB">
<feFlood flood-opacity="0" result="BackgroundImageFix"/>
<feColorMatrix in="SourceAlpha" type="matrix" values="0 0 0 0 0 0 0 0 0 0 0 0 0 0 0 0 0 0 127 0" result="hardAlpha"/>
<feOffset/>
<feGaussianBlur stdDeviation="7.5"/>
<feColorMatrix type="matrix" values="0 0 0 0 0 0 0 0 0 0 0 0 0 0 0 0 0 0 0.360604 0"/>
<feBlend mode="normal" in2="BackgroundImageFix" result="effect1_dropShadow_7_2815"/>
<feBlend mode="normal" in="SourceGraphic" in2="effect1_dropShadow_7_2815" result="shape"/>
</filter>
</defs>
</svg>
