<svg width="24" height="24" viewBox="0 0 24 24" fill="none" xmlns="http://www.w3.org/2000/svg">
<path fill-rule="evenodd" clip-rule="evenodd" d="M20.3856 7.1075L23.2396 9.9605C23.6296 10.3515 23.6296 10.9845 23.2396 11.3745L18.0144 16.6006L17.7073 16.2933C17.3163 15.9023 16.6843 15.9023 16.2933 16.2933C15.9023 16.6833 15.9023 17.3162 16.2933 17.7073L16.6 18.0141L11.3756 23.2385C11.1806 23.4345 10.9246 23.5315 10.6686 23.5315C10.4126 23.5315 10.1566 23.4345 9.96163 23.2385L7.10763 20.3855C6.71763 19.9945 6.71763 19.3615 7.10763 18.9715C7.53463 18.5445 7.53463 17.8505 7.10763 17.4235C6.68263 16.9975 5.98863 16.9975 5.56063 17.4235C5.16963 17.8145 4.53763 17.8145 4.14663 17.4235L1.29263 14.5705C1.10563 14.3825 0.999634 14.1285 0.999634 13.8635C0.999634 13.5985 1.10563 13.3435 1.29263 13.1565L6.51721 7.93192L6.94128 8.35625C7.13728 8.55125 7.39328 8.64925 7.64828 8.64925C7.90428 8.64925 8.16028 8.55125 8.35528 8.35625C8.74628 7.96625 8.74628 7.33325 8.35528 6.94225L7.93121 6.51792L13.1566 1.2925C13.5476 0.9025 14.1806 0.9025 14.5706 1.2925L17.4246 4.1465C17.6116 4.3335 17.7176 4.5885 17.7176 4.8535C17.7176 5.1195 17.6116 5.3735 17.4246 5.5605C17.2176 5.7675 17.1036 6.0415 17.1036 6.3335C17.1036 6.6255 17.2176 6.9005 17.4246 7.1065C17.8506 7.5335 18.5446 7.5355 18.9716 7.1075C19.3626 6.7165 19.9956 6.7165 20.3856 7.1075ZM10.7349 10.7343C11.1259 10.3433 11.7579 10.3433 12.1489 10.7343L13.7969 12.3833C14.1879 12.7743 14.1879 13.4073 13.7969 13.7973C13.6019 13.9923 13.3459 14.0903 13.0899 14.0903C12.8349 14.0903 12.5789 13.9923 12.3829 13.7973L10.7349 12.1483C10.3439 11.7573 10.3439 11.1243 10.7349 10.7343Z" fill="#355F55"/>
<mask id="mask0_11_2198" style="mask-type:alpha" maskUnits="userSpaceOnUse" x="0" y="1" width="24" height="23">
<path fill-rule="evenodd" clip-rule="evenodd" d="M20.3856 7.1075L23.2396 9.9605C23.6296 10.3515 23.6296 10.9845 23.2396 11.3745L18.0144 16.6006L17.7073 16.2933C17.3163 15.9023 16.6843 15.9023 16.2933 16.2933C15.9023 16.6833 15.9023 17.3162 16.2933 17.7073L16.6 18.0141L11.3756 23.2385C11.1806 23.4345 10.9246 23.5315 10.6686 23.5315C10.4126 23.5315 10.1566 23.4345 9.96163 23.2385L7.10763 20.3855C6.71763 19.9945 6.71763 19.3615 7.10763 18.9715C7.53463 18.5445 7.53463 17.8505 7.10763 17.4235C6.68263 16.9975 5.98863 16.9975 5.56063 17.4235C5.16963 17.8145 4.53763 17.8145 4.14663 17.4235L1.29263 14.5705C1.10563 14.3825 0.999634 14.1285 0.999634 13.8635C0.999634 13.5985 1.10563 13.3435 1.29263 13.1565L6.51721 7.93192L6.94128 8.35625C7.13728 8.55125 7.39328 8.64925 7.64828 8.64925C7.90428 8.64925 8.16028 8.55125 8.35528 8.35625C8.74628 7.96625 8.74628 7.33325 8.35528 6.94225L7.93121 6.51792L13.1566 1.2925C13.5476 0.9025 14.1806 0.9025 14.5706 1.2925L17.4246 4.1465C17.6116 4.3335 17.7176 4.5885 17.7176 4.8535C17.7176 5.1195 17.6116 5.3735 17.4246 5.5605C17.2176 5.7675 17.1036 6.0415 17.1036 6.3335C17.1036 6.6255 17.2176 6.9005 17.4246 7.1065C17.8506 7.5335 18.5446 7.5355 18.9716 7.1075C19.3626 6.7165 19.9956 6.7165 20.3856 7.1075ZM10.7349 10.7343C11.1259 10.3433 11.7579 10.3433 12.1489 10.7343L13.7969 12.3833C14.1879 12.7743 14.1879 13.4073 13.7969 13.7973C13.6019 13.9923 13.3459 14.0903 13.0899 14.0903C12.8349 14.0903 12.5789 13.9923 12.3829 13.7973L10.7349 12.1483C10.3439 11.7573 10.3439 11.1243 10.7349 10.7343Z" fill="white"/>
</mask>
<g mask="url(#mask0_11_2198)">
<rect x="-39.8029" y="-37.7213" width="96" height="96" fill="#FC1055"/>
</g>
</svg>
