<svg width="24" height="24" viewBox="0 0 24 24" fill="none" xmlns="http://www.w3.org/2000/svg">
<path fill-rule="evenodd" clip-rule="evenodd" d="M16.2856 14.8705L16.6006 15.1855L21.1186 10.6675L19.5616 9.1115C18.4046 9.6765 16.9686 9.4795 16.0106 8.5215C15.4256 7.9375 15.1036 7.1605 15.1036 6.3335C15.1036 5.8525 15.2126 5.3885 15.4196 4.9695L13.8636 3.4145L9.34657 7.9315L9.66157 8.2475C10.0516 8.6375 10.0516 9.2705 9.66157 9.6615C9.46557 9.8565 9.20957 9.9545 8.95457 9.9545C8.69857 9.9545 8.44157 9.8565 8.24657 9.6615L7.93157 9.3455L3.41357 13.8635L4.97057 15.4195C6.12557 14.8535 7.56257 15.0515 8.52157 16.0095C9.48057 16.9685 9.67757 18.4055 9.11157 19.5605L10.6686 21.1175L15.1856 16.6005L14.8706 16.2845C14.4806 15.8935 14.4806 15.2605 14.8716 14.8705C15.2616 14.4805 15.8956 14.4795 16.2856 14.8705ZM20.3856 7.1075L23.2396 9.9605C23.6296 10.3515 23.6296 10.9845 23.2396 11.3745L17.3086 17.3065C17.3076 17.3065 17.3076 17.3075 17.3076 17.3075C17.3066 17.3085 17.3066 17.3085 17.3056 17.3085L11.3756 23.2385C11.1806 23.4345 10.9246 23.5315 10.6686 23.5315C10.4126 23.5315 10.1566 23.4345 9.96157 23.2385L7.10757 20.3855C6.71757 19.9945 6.71757 19.3615 7.10757 18.9715C7.53457 18.5445 7.53457 17.8505 7.10757 17.4235C6.68257 16.9975 5.98857 16.9975 5.56057 17.4235C5.16957 17.8145 4.53757 17.8145 4.14657 17.4235L1.29257 14.5705C1.10557 14.3825 0.999573 14.1285 0.999573 13.8635C0.999573 13.5985 1.10557 13.3435 1.29257 13.1565L7.22457 7.2245H7.22557V7.2235L13.1566 1.2925C13.5476 0.9025 14.1806 0.9025 14.5706 1.2925L17.4246 4.1465C17.6116 4.3335 17.7176 4.5885 17.7176 4.8535C17.7176 5.1195 17.6116 5.3735 17.4246 5.5605C17.2176 5.7675 17.1036 6.0415 17.1036 6.3335C17.1036 6.6255 17.2176 6.9005 17.4246 7.1065C17.8506 7.5335 18.5446 7.5355 18.9716 7.1075C19.3626 6.7165 19.9956 6.7165 20.3856 7.1075ZM10.7349 10.7343C11.1259 10.3433 11.7579 10.3433 12.1489 10.7343L13.7969 12.3833C14.1879 12.7743 14.1879 13.4073 13.7969 13.7973C13.6019 13.9923 13.3459 14.0903 13.0899 14.0903C12.8349 14.0903 12.5789 13.9923 12.3829 13.7973L10.7349 12.1483C10.3439 11.7573 10.3439 11.1243 10.7349 10.7343Z" fill="#355F55"/>
<mask id="mask0_7_2381" style="mask-type:alpha" maskUnits="userSpaceOnUse" x="0" y="1" width="24" height="23">
<path fill-rule="evenodd" clip-rule="evenodd" d="M16.2856 14.8705L16.6006 15.1855L21.1186 10.6675L19.5616 9.1115C18.4046 9.6765 16.9686 9.4795 16.0106 8.5215C15.4256 7.9375 15.1036 7.1605 15.1036 6.3335C15.1036 5.8525 15.2126 5.3885 15.4196 4.9695L13.8636 3.4145L9.34657 7.9315L9.66157 8.2475C10.0516 8.6375 10.0516 9.2705 9.66157 9.6615C9.46557 9.8565 9.20957 9.9545 8.95457 9.9545C8.69857 9.9545 8.44157 9.8565 8.24657 9.6615L7.93157 9.3455L3.41357 13.8635L4.97057 15.4195C6.12557 14.8535 7.56257 15.0515 8.52157 16.0095C9.48057 16.9685 9.67757 18.4055 9.11157 19.5605L10.6686 21.1175L15.1856 16.6005L14.8706 16.2845C14.4806 15.8935 14.4806 15.2605 14.8716 14.8705C15.2616 14.4805 15.8956 14.4795 16.2856 14.8705ZM20.3856 7.1075L23.2396 9.9605C23.6296 10.3515 23.6296 10.9845 23.2396 11.3745L17.3086 17.3065C17.3076 17.3065 17.3076 17.3075 17.3076 17.3075C17.3066 17.3085 17.3066 17.3085 17.3056 17.3085L11.3756 23.2385C11.1806 23.4345 10.9246 23.5315 10.6686 23.5315C10.4126 23.5315 10.1566 23.4345 9.96157 23.2385L7.10757 20.3855C6.71757 19.9945 6.71757 19.3615 7.10757 18.9715C7.53457 18.5445 7.53457 17.8505 7.10757 17.4235C6.68257 16.9975 5.98857 16.9975 5.56057 17.4235C5.16957 17.8145 4.53757 17.8145 4.14657 17.4235L1.29257 14.5705C1.10557 14.3825 0.999573 14.1285 0.999573 13.8635C0.999573 13.5985 1.10557 13.3435 1.29257 13.1565L7.22457 7.2245H7.22557V7.2235L13.1566 1.2925C13.5476 0.9025 14.1806 0.9025 14.5706 1.2925L17.4246 4.1465C17.6116 4.3335 17.7176 4.5885 17.7176 4.8535C17.7176 5.1195 17.6116 5.3735 17.4246 5.5605C17.2176 5.7675 17.1036 6.0415 17.1036 6.3335C17.1036 6.6255 17.2176 6.9005 17.4246 7.1065C17.8506 7.5335 18.5446 7.5355 18.9716 7.1075C19.3626 6.7165 19.9956 6.7165 20.3856 7.1075ZM10.7349 10.7343C11.1259 10.3433 11.7579 10.3433 12.1489 10.7343L13.7969 12.3833C14.1879 12.7743 14.1879 13.4073 13.7969 13.7973C13.6019 13.9923 13.3459 14.0903 13.0899 14.0903C12.8349 14.0903 12.5789 13.9923 12.3829 13.7973L10.7349 12.1483C10.3439 11.7573 10.3439 11.1243 10.7349 10.7343Z" fill="white"/>
</mask>
<g mask="url(#mask0_7_2381)">
<rect x="-39.8029" y="-37.7213" width="96" height="96" fill="#CACDD4"/>
</g>
</svg>
